<svg width="63" height="59" viewBox="0 0 63 59" fill="none" xmlns="http://www.w3.org/2000/svg">
<path d="M43.073 22.3585H19.9284V29.5H43.073V22.3585ZM43.073 8.07543C43.073 5.93297 41.5301 4.50466 39.2156 4.50466H36.9011C36.1297 2.3622 34.2009 0.933899 31.5007 0.933899C28.8005 0.933899 26.8718 2.3622 26.1003 4.50466H23.7859C21.4714 4.50466 19.9284 5.93297 19.9284 8.07543V15.217H43.073V8.07543ZM43.073 36.6415H19.9284V43.7831H43.073V36.6415ZM50.7879 8.07543H46.9305V15.217H50.7879V50.9246H12.2136V15.217H16.071V8.07543H12.2136C7.97041 8.07543 4.49872 11.2891 4.49872 15.217V50.9246C4.49872 54.8524 7.97041 58.0661 12.2136 58.0661H50.7879C55.0311 58.0661 58.5028 54.8524 58.5028 50.9246V15.217C58.5028 11.2891 55.0311 8.07543 50.7879 8.07543Z" fill="#5CCFA4"/>
</svg>
